<?xml version="1.0" encoding="utf-8"?>
<!-- Generator: Adobe Illustrator 21.0.0, SVG Export Plug-In . SVG Version: 6.00 Build 0)  -->
<svg version="1.1" xmlns="http://www.w3.org/2000/svg" xmlns:xlink="http://www.w3.org/1999/xlink" x="0px" y="0px"
	 viewBox="0 0 541.4 137.5" style="enable-background:new 0 0 541.4 137.5;" xml:space="preserve">
<style type="text/css">
	.st0{fill:url(#SVGID_1_);}
	.st1{fill:url(#SVGID_2_);}
	.st2{fill:url(#SVGID_3_);}
	.st3{fill:url(#SVGID_4_);}
	.st4{fill:url(#SVGID_5_);}
	.st5{fill:url(#SVGID_6_);}
	.st6{fill:url(#SVGID_7_);}
	.st7{fill:url(#SVGID_8_);}
	.st8{fill:url(#SVGID_9_);}
	.st9{fill:url(#SVGID_10_);}
	.st10{fill:url(#SVGID_11_);}
	.st11{fill:url(#SVGID_12_);}
	.st12{fill:url(#SVGID_13_);}
	.st13{fill:#33B9C9;}
</style>
<g id="Calque_1">
</g>
<g id="Calque_3">
</g>
<g id="Calque_2">
	<g>
		<linearGradient id="SVGID_1_" gradientUnits="userSpaceOnUse" x1="31.0394" y1="105.4086" x2="31.0394" y2="55.3867">
			<stop  offset="0" style="stop-color:#000000"/>
			<stop  offset="1" style="stop-color:#FFFFFF"/>
		</linearGradient>
		<path class="st0" d="M32.1,6.3v80.4h11.6v23H18.4V6.3C18.4,6.3,32.1,6.1,32.1,6.3z"/>
		<linearGradient id="SVGID_2_" gradientUnits="userSpaceOnUse" x1="169.0283" y1="105.423" x2="169.0283" y2="55.5445">
			<stop  offset="0" style="stop-color:#000000"/>
			<stop  offset="1" style="stop-color:#FFFFFF"/>
		</linearGradient>
		<path class="st1" d="M185.6,36.1c-0.1,0.6-11.8-17.4-17,0.2c-4.5,15.5-1.6,33.6-0.3,41.2c0.5,2.8,1.9,8.2,4.1,9.9
			c3.2,2.5,8.1,3.5,13.2-6.7c0,1.6,0,21.9,0,21.9s-12.3,13.3-20.9,5.3c-8.6-8-12.3-24-12.3-53.7c0-20.7,3-32,5.2-37.9
			c1.1-3,3.5-7.1,6.1-8.8c4.8-3.1,13.9-4.6,21.8,6.5C185.6,14,185.5,34.4,185.6,36.1z"/>
		<linearGradient id="SVGID_3_" gradientUnits="userSpaceOnUse" x1="349.9294" y1="105.4111" x2="349.9294" y2="55.4147">
			<stop  offset="0" style="stop-color:#000000"/>
			<stop  offset="1" style="stop-color:#FFFFFF"/>
		</linearGradient>
		<path class="st2" d="M366.5,36.1c-0.1,0.6-11.8-17.4-17,0.2c-4.5,15.5-1.6,33.6-0.3,41.2c0.5,2.8,1.9,8.2,4.1,9.9
			c3.2,2.5,8.1,3.5,13.2-6.7c0,1.6,0,21.9,0,21.9s-12.3,13.3-20.9,5.3s-12.3-24-12.3-53.7c0-20.7,3-32,5.2-37.9
			c1.1-3,3.5-7.1,6.1-8.8c4.8-3.1,14-5.3,22,5.9C366.6,13.4,366.4,34.4,366.5,36.1z"/>
		<linearGradient id="SVGID_4_" gradientUnits="userSpaceOnUse" x1="210.2538" y1="105.4086" x2="210.2538" y2="55.3867">
			<stop  offset="0" style="stop-color:#000000"/>
			<stop  offset="1" style="stop-color:#FFFFFF"/>
		</linearGradient>
		<path class="st3" d="M191.2,6.6h14.5v39.1h9.6V6.6h14.1v101.7h-14.5V68.2h-9.1V108h-13.8C191.9,108,190.8,6.2,191.2,6.6z"/>
		<linearGradient id="SVGID_5_" gradientUnits="userSpaceOnUse" x1="244.7425" y1="105.4086" x2="244.7425" y2="55.3867">
			<stop  offset="0" style="stop-color:#000000"/>
			<stop  offset="1" style="stop-color:#FFFFFF"/>
		</linearGradient>
		<path class="st4" d="M238.1,6.8h13.4v101.7h-13.1C238.3,108.5,238.1,6.1,238.1,6.8z"/>
		<linearGradient id="SVGID_6_" gradientUnits="userSpaceOnUse" x1="274.0701" y1="105.4086" x2="274.0701" y2="55.3867">
			<stop  offset="0" style="stop-color:#000000"/>
			<stop  offset="1" style="stop-color:#FFFFFF"/>
		</linearGradient>
		<path class="st5" d="M256.7,6.3l34.8,0v24.1h-10.3v77.8h-13.4V30.7h-11.2C256.6,30.7,256.7,7,256.7,6.3z"/>
		<linearGradient id="SVGID_7_" gradientUnits="userSpaceOnUse" x1="386.0844" y1="105.4086" x2="386.0844" y2="55.3867">
			<stop  offset="0" style="stop-color:#000000"/>
			<stop  offset="1" style="stop-color:#FFFFFF"/>
		</linearGradient>
		<path class="st6" d="M368.7,6.3l34.8,0v24.1h-10.3v77.8h-13.4V30.7h-11.2C368.7,30.7,368.7,7,368.7,6.3z"/>
		<linearGradient id="SVGID_8_" gradientUnits="userSpaceOnUse" x1="311.2613" y1="105.4086" x2="311.2613" y2="55.3867">
			<stop  offset="0" style="stop-color:#000000"/>
			<stop  offset="1" style="stop-color:#FFFFFF"/>
		</linearGradient>
		<path class="st7" d="M325.9,6.5h-29.9v101.6h30.4V87.5h-16.8V69.3h16V47.1h-15.8V29.5h16C325.9,29.5,325.9,5.9,325.9,6.5z"/>
		<linearGradient id="SVGID_9_" gradientUnits="userSpaceOnUse" x1="510.4861" y1="105.4086" x2="510.4861" y2="55.3867">
			<stop  offset="0" style="stop-color:#000000"/>
			<stop  offset="1" style="stop-color:#FFFFFF"/>
		</linearGradient>
		<path class="st8" d="M525.4,6.5h-30.1v101.6h30.4V87.5h-16.8V69.3h16V47.1h-15.8V29.5h16.4C525.5,29.5,525.4,5.9,525.4,6.5z"/>
		<linearGradient id="SVGID_10_" gradientUnits="userSpaceOnUse" x1="86.655" y1="105.4086" x2="86.655" y2="55.3867">
			<stop  offset="0" style="stop-color:#000000"/>
			<stop  offset="1" style="stop-color:#FFFFFF"/>
		</linearGradient>
		<path class="st9" d="M97,6.3H76.3l-9.9,102.5h13.1l2.3-21.5h9.9l3.5,21.8h11.6L97,6.3z M82.4,65.8l4.3-47.3l5,47.3H82.4z"/>
		<linearGradient id="SVGID_11_" gradientUnits="userSpaceOnUse" x1="129.7498" y1="105.4145" x2="129.7498" y2="55.4965">
			<stop  offset="0" style="stop-color:#000000"/>
			<stop  offset="1" style="stop-color:#FFFFFF"/>
		</linearGradient>
		<path class="st10" d="M147.7,34.3c0-28.2-14.5-27.7-14.5-27.7s-20.5,0.1-21.3,0.1v101.6h12.8V64.9l2.1,0l8.1,42.5h12.8l-9-43.7
			C138.6,63.7,147.7,62.5,147.7,34.3z M124.8,50.5V27.3c0,0,9.6-2,9.6,10.8C134.4,53.6,124.8,50.5,124.8,50.5z"/>
		<linearGradient id="SVGID_12_" gradientUnits="userSpaceOnUse" x1="470.1416" y1="105.4086" x2="470.1416" y2="55.3867">
			<stop  offset="0" style="stop-color:#000000"/>
			<stop  offset="1" style="stop-color:#FFFFFF"/>
		</linearGradient>
		<path class="st11" d="M488,34.3c0-28.2-14-28-14-28s-21,0.3-21.8,0.3v101.6H465V64.9l2.1,0l8.1,42.5H488l-9-43.7
			C479,63.7,488,62.5,488,34.3z M465.2,50.5V27.3c0,0,9.6-2,9.6,10.8C474.8,53.6,465.2,50.5,465.2,50.5z"/>
		<linearGradient id="SVGID_13_" gradientUnits="userSpaceOnUse" x1="426.1907" y1="105.4086" x2="426.1907" y2="55.3867">
			<stop  offset="0" style="stop-color:#000000"/>
			<stop  offset="1" style="stop-color:#FFFFFF"/>
		</linearGradient>
		<path class="st12" d="M421.3,6.7V83c0,0-0.3,6.5,4.8,6.5s4.7-6.5,4.7-6.5V6.5h12.8V87c0,0,1.1,23.4-17.3,23.4
			c-18.4,0-17.7-22.7-17.7-22.7v-81C408.7,6.7,421.3,6.6,421.3,6.7z"/>
	</g>
	<path class="st13" d="M56.6,46.2c0,0,5.6-5.7,5.2-39.6c-5.4,0-11,0-11,0s1,25.3-3.5,39.5C50,46.3,56.6,46.2,56.6,46.2z"/>
	<g>
		<path class="st13" d="M44.3,107.9V85.7h-3v14.3c-2.5-3.1-6.4-5.1-10.7-5.1c-7.5,0-13.7,6.1-13.7,13.7s6.1,13.7,13.7,13.7
			c4.3,0,8.1-2,10.7-5.1v4.6h3v-12.6c0-0.2,0-0.4,0-0.6S44.3,108.1,44.3,107.9z M30.6,119.3c-6,0-10.8-4.8-10.8-10.8
			s4.8-10.8,10.8-10.8c5.4,0,9.9,4,10.7,9.1v3.3C40.5,115.3,36,119.3,30.6,119.3z"/>
		<path class="st13" d="M179.7,94.8c-7.5,0-13.7,6.1-13.7,13.7s6.1,13.7,13.7,13.7s13.7-6.1,13.7-13.7S187.2,94.8,179.7,94.8z
			 M179.7,119.3c-6,0-10.8-4.8-10.8-10.8s4.8-10.8,10.8-10.8s10.8,4.8,10.8,10.8S185.6,119.3,179.7,119.3z"/>
		<path class="st13" d="M471.4,94.8c-7.5,0-13.7,6.1-13.7,13.7s6.1,13.7,13.7,13.7s13.7-6.1,13.7-13.7S479,94.8,471.4,94.8z
			 M471.4,119.3c-6,0-10.8-4.8-10.8-10.8s4.8-10.8,10.8-10.8s10.8,4.8,10.8,10.8S477.4,119.3,471.4,119.3z"/>
		<path class="st13" d="M86.7,109.4h1.7c0-7.5-6.3-14.5-13.8-14.5s-13.7,6.1-13.7,13.7s6.1,13.7,13.7,13.7c5.1,0,10.4-3.6,12.3-8.7
			l-2.7,0c-1.9,3.6-5.5,5.8-9.6,5.8c-5.7,0-10.3-4.4-10.8-9.9L86.7,109.4L86.7,109.4z M63.9,106.5c1-5,5.3-8.8,10.6-8.8
			c5,0,9.3,4,10.6,8.8H63.9z"/>
		<path class="st13" d="M378.6,109.4h1.7c0-7.5-6.3-14.5-13.8-14.5s-13.7,6.1-13.7,13.7s6.1,13.7,13.7,13.7c5.1,0,10.4-3.6,12.3-8.7
			l-2.7,0c-1.9,3.6-5.5,5.8-9.6,5.8c-5.7,0-10.3-4.4-10.8-9.9L378.6,109.4L378.6,109.4z M355.8,106.5c1-5,5.3-8.8,10.6-8.8
			c5,0,9.3,4,10.6,8.8H355.8z"/>
		<path class="st13" d="M285.3,109.4h1.7c0-7.5-6.3-14.5-13.8-14.5s-13.7,6.1-13.7,13.7s6.1,13.7,13.7,13.7c5.1,0,10.4-3.6,12.3-8.7
			l-2.7,0c-1.9,3.6-5.5,5.8-9.6,5.8c-5.7,0-10.3-4.4-10.8-9.9L285.3,109.4L285.3,109.4z M262.5,106.5c1-5,5.3-8.8,10.6-8.8
			c5,0,9.3,4,10.6,8.8H262.5z"/>
		<polygon class="st13" points="139.6,116.4 130.1,95 127.4,96.2 139.5,123.7 152.4,96.1 149.7,94.8 		"/>
		<polygon class="st13" points="215.5,86.3 212.5,86.3 212.5,94.8 206.9,94.8 206.9,97.8 212.5,97.8 212.5,121.3 215.5,121.3 
			215.5,97.8 221.5,97.8 221.5,94.8 215.5,94.8 		"/>
		<path class="st13" d="M238.6,95.3h-3v26h3V106c0-4.3,3.4-7.9,7.8-8c0.1,0,0.1,0,0.2,0v-3.1c-3.7,0-6.2,1.9-7.9,3.4L238.6,95.3z"/>
		<path class="st13" d="M331.9,95.3h-3v26h3V106c0-4.3,3.4-7.9,7.8-8c0.1,0,0.1,0,0.2,0v-3.1c-3.7,0-6.2,1.9-7.9,3.4L331.9,95.3z"/>
		<rect x="438.6" y="94.6" class="st13" width="3" height="26.9"/>
		<rect x="438.6" y="86.5" class="st13" width="3" height="4.9"/>
		<path class="st13" d="M418.8,100.3c-2.5-3.3-6.5-5.5-11-5.5c-7.5,0-13.7,6.1-13.7,13.7s6.1,13.7,13.7,13.7c4.5,0,8.5-2.2,11-5.5
			v3.8c0,1.9-0.6,3.7-1.6,5.1c-1.8,2.4-4.7,3.7-8.5,3.7c-8.9,0-10.1-5.9-10.1-6.1l-3,0.5c0,0.2,0.4,2.3,2.2,4.4
			c1.7,1.9,4.9,4.2,10.8,4.2c6,0,9.2-2.7,10.9-4.9c1.4-1.9,2.2-4.3,2.2-6.9V95.4h-3V100.3z M407.8,119.3c-6,0-10.8-4.8-10.8-10.8
			s4.8-10.8,10.8-10.8s10.8,4.8,10.8,10.8S413.8,119.3,407.8,119.3z"/>
		
			<rect x="362.4" y="86.3" transform="matrix(0.8406 -0.5417 0.5417 0.8406 11.0659 213.187)" class="st13" width="10.6" height="3"/>
		<path class="st13" d="M521.8,97.8c-2-2.2-5-3.3-8.9-3.3c-3.5,0-6.3,1.1-8.4,3.2c-0.3,0.3-0.5,0.5-0.7,0.8v-2.9h-3v11.4
			c0,0.2,0,0.3,0,0.4l0,0v13.6h3V107c0.1-1,0.5-4.8,2.9-7.2c1.5-1.5,3.6-2.3,6.3-2.3c3,0,5.2,0.8,6.6,2.3c2,2.2,1.7,5.2,1.7,5.2
			l0,16.3h3v-16.1C524.3,104.6,524.4,100.7,521.8,97.8z"/>
	</g>
</g>
</svg>
